<svg xmlns="http://www.w3.org/2000/svg" viewBox="0 0 800 500" width="800" height="500">
  <rect width="100%" height="100%" fill="#050505"/>
  <path d="M0 100 L800 100 M0 200 L800 200 M0 300 L800 300 M0 400 L800 400" stroke="#222" stroke-width="1"/>
  <path d="M100 0 L100 500 M200 0 L200 500 M300 0 L300 500 M400 0 L400 500 M500 0 L500 500 M600 0 L600 500 M700 0 L700 500" stroke="#222" stroke-width="1"/>
  <circle cx="400" cy="250" r="160" fill="none" stroke="#FF0B55" stroke-width="6"/>
  <path d="M400 50 L400 450 M150 250 L650 250" stroke="#FF0B55" stroke-width="2" stroke-dasharray="10 10" />
  <circle cx="400" cy="250" r="120" fill="none" stroke="#00E5FF" stroke-width="3" stroke-dasharray="15 10"/>
  <text x="400" y="265" font-family="'Courier New', monospace" font-size="45" font-weight="bold" fill="#FFFFFF" text-anchor="middle">SYS.GEN</text>
  <text x="40" y="460" font-family="'Courier New', monospace" font-size="14" fill="#00E5FF" font-weight="bold">> INITIALIZING MODEL_V6...</text>
</svg>
